<svg width="25" height="25" viewBox="0 0 25 25" fill="none" xmlns="http://www.w3.org/2000/svg">
<g id="tabler:trash">
<path id="Vector" d="M3.49194 6.48693H21.2697M10.1586 10.9314V17.598M14.6031 10.9314V17.598M4.60305 6.48693L5.71417 19.8203C5.71417 20.4096 5.94829 20.9749 6.36504 21.3916C6.78179 21.8084 7.34702 22.0425 7.93639 22.0425H16.8253C17.4146 22.0425 17.9799 21.8084 18.3966 21.3916C18.8134 20.9749 19.0475 20.4096 19.0475 19.8203L20.1586 6.48693M9.0475 6.48693V3.15359C9.0475 2.85891 9.16456 2.57629 9.37294 2.36792C9.58131 2.15954 9.86393 2.04248 10.1586 2.04248H14.6031C14.8977 2.04248 15.1804 2.15954 15.3887 2.36792C15.5971 2.57629 15.7142 2.85891 15.7142 3.15359V6.48693" stroke="#767676" stroke-width="1.66667" stroke-linecap="round" stroke-linejoin="round"/>
</g>
</svg>
