<svg width="24" height="24" viewBox="0 0 24 24" fill="none" xmlns="http://www.w3.org/2000/svg">
<g id="mage:pen">
<path id="Vector" d="M2.77694 19.783L3.38394 15.621C3.42094 15.349 3.54494 15.096 3.73894 14.901L15.4999 3.12397C15.6525 2.96994 15.842 2.85768 16.0504 2.79797C16.2588 2.73825 16.479 2.73309 16.6899 2.78297C17.7694 3.08189 18.748 3.66723 19.5219 4.47697C20.3295 5.25624 20.9107 6.23975 21.2039 7.32297C21.2538 7.53392 21.2487 7.75415 21.1889 7.96253C21.1292 8.17091 21.017 8.36045 20.8629 8.51297L9.08894 20.275C8.89345 20.4682 8.64035 20.5924 8.36794 20.629L4.20694 21.236C4.01039 21.2646 3.80984 21.2466 3.62157 21.1833C3.43329 21.1199 3.26259 21.0131 3.12331 20.8715C2.98402 20.7299 2.88008 20.5574 2.8199 20.3681C2.75972 20.1788 2.74501 19.978 2.77694 19.782M13.2749 5.36397L18.6379 10.727" stroke="#767676" stroke-width="1.5" stroke-linecap="round" stroke-linejoin="round"/>
</g>
</svg>
