<svg width="43" height="37" viewBox="0 0 43 37" fill="none" xmlns="http://www.w3.org/2000/svg">
<path d="M0 3.08333C0 1.37786 1.37254 0 3.07143 0H39.9286C41.6275 0 43 1.37786 43 3.08333C43 4.7888 41.6275 6.16667 39.9286 6.16667H3.07143C1.37254 6.16667 0 4.7888 0 3.08333ZM0 18.5C0 16.7945 1.37254 15.4167 3.07143 15.4167H39.9286C41.6275 15.4167 43 16.7945 43 18.5C43 20.2055 41.6275 21.5833 39.9286 21.5833H3.07143C1.37254 21.5833 0 20.2055 0 18.5ZM43 33.9167C43 35.6221 41.6275 37 39.9286 37H3.07143C1.37254 37 0 35.6221 0 33.9167C0 32.2112 1.37254 30.8333 3.07143 30.8333H39.9286C41.6275 30.8333 43 32.2112 43 33.9167Z" fill="lightgray"/>
</svg>
